<?xml version="1.0" encoding="UTF-8" standalone="no"?>
<svg
   xmlns:dc="http://purl.org/dc/elements/1.1/"
   xmlns:cc="http://creativecommons.org/ns#"
   xmlns:rdf="http://www.w3.org/1999/02/22-rdf-syntax-ns#"
   xmlns:svg="http://www.w3.org/2000/svg"
   xmlns="http://www.w3.org/2000/svg"
   version="1.1"
   id="svg2"
   xml:space="preserve"
   width="1020"
   height="227.002"
   viewBox="0 0 1020 227.002"><metadata
     id="metadata8"><rdf:RDF><cc:Work
         rdf:about=""><dc:format>image/svg+xml</dc:format><dc:type
           rdf:resource="http://purl.org/dc/dcmitype/StillImage" /><dc:title></dc:title></cc:Work></rdf:RDF></metadata><defs
     id="defs6" /><g
     transform="matrix(0.13490613,0,0,0.13490613,-40.417058,-602.58177)"
     id="g4564"><path
       style="fill:#333333;fill-opacity:1;fill-rule:nonzero;stroke:none;stroke-width:1.33333325"
       d="m 883.08789,4843.5879 c -4.66667,0 -9.26018,1.2089 -13.35351,3.5156 h -0.006 c -4.484,2.5267 -8.20634,6.2811 -10.76368,10.8438 l -27.94336,49.8808 C 791.78668,5015.0735 689.811,5086.4489 575.619,5086.5996 c -6.584,-0.088 -13.15999,-0.4222 -19.72266,-0.9902 l -89.25195,-1.1563 c -10.18133,-0.136 -19.51414,5.0929 -24.49414,13.7129 l -64.79101,112.2246 c -4.97468,8.6147 -4.83353,19.3177 0.36914,28.0684 l 57.875,97.2949 c -0.052,0.2613 -0.10425,0.5271 -0.15625,0.7871 21.57866,39.7347 32.92238,84.2145 33.01171,129.4238 -0.0573,56.1454 -17.46517,110.8944 -49.83984,156.7637 l -40.89062,68.7403 c -5.20267,8.7493 -5.34382,19.4477 -0.36914,28.0664 l 64.79101,112.2246 c 4.98,8.62 14.31281,13.8489 24.49414,13.7129 l 85.21094,-1.1094 c 6.828,-0.536 13.67463,-0.8106 20.5293,-0.8321 104.99999,0.1148 200.5893,60.5788 245.66796,155.4122 l 40.91211,73.0351 c 4.97867,8.8813 14.17105,14.3555 24.12305,14.3555 h 129.58405 c 9.9533,0 19.145,-5.4742 24.125,-14.3555 l 37.5664,-67.0664 c 42.6933,-95.1987 136.0161,-157.6355 240.3027,-160.7715 0.052,-0.052 0.1043,-0.1037 0.1563,-0.1504 l 2.9687,0.037 c 1.6293,-0.073 3.2619,-0.1305 4.8926,-0.1718 2.1347,0.077 4.2639,0.1857 6.3945,0.3164 l 100.0371,1.3008 c 10.1827,0.1306 19.5155,-5.0983 24.4942,-13.7129 l 64.791,-112.2286 c 4.9733,-8.6133 4.8349,-19.317 -0.3692,-28.0664 l -47.0039,-79.0214 c -1.4746,-2.396 -2.9131,-4.8075 -4.3144,-7.2461 l -6.8125,-11.4629 c 0.02,-0.104 0.043,-0.2072 0.064,-0.3125 -21.5,-39.6814 -32.804,-84.0823 -32.8867,-129.2129 0.061,-56.348 17.6045,-111.2874 50.2031,-157.25 l 40.75,-68.5 c 5.2041,-8.7507 5.3425,-19.4542 0.3692,-28.0742 l -64.791,-112.2227 c -4.9734,-8.6147 -14.3115,-13.8455 -24.4942,-13.7148 l -83.1894,1.0839 c -7.4574,0.6628 -14.9418,1.0217 -22.4258,1.0684 -40.6652,-0.044 -79.9151,-9.1465 -115.3691,-25.7851 l -74.9844,129.873 113.498,65.5254 c 19.428,11.2187 31.3965,31.9488 31.3965,54.3809 v 308.7343 c -0.01,22.432 -11.967,43.1622 -31.4004,54.3809 l -267.36525,154.3652 c -19.42667,11.2134 -43.36302,11.2134 -62.79101,0 L 649.11523,5673.709 c -19.42666,-11.2187 -31.39648,-31.9489 -31.39648,-54.3809 v -308.7285 c 0,-22.4373 11.96982,-43.1675 31.39648,-54.3808 l 267.36915,-154.3633 c 9.71399,-5.6094 20.55531,-8.4141 31.39648,-8.4141 10.84117,0 21.6812,2.8047 31.39453,8.4141 l 99.95311,57.705 75.9043,-131.4687 c -32.2647,-25.441 -58.9444,-58.3088 -77.2773,-96.8574 l -41.0586,-73.291 c -4.9747,-8.88 -14.1712,-14.3555 -24.1192,-14.3555 z"
       id="path14" /><path
       id="path18"
       style="fill:#03d5e1;fill-opacity:1;fill-rule:nonzero;stroke:none;stroke-width:1.33333325"
       d="m 719.05198,5305.0788 c -14.88,8.5933 -24.04666,24.468 -24.052,41.6507 v 236.464 c 0,17.1813 9.16667,33.0573 24.04667,41.6506 l 204.78666,118.2347 c 14.88,8.588 33.21333,8.588 48.09333,0 L 1176.708,5624.8495 c 14.88,-8.5934 24.0466,-24.4694 24.0466,-41.6507 v -236.464 c 0,-17.1827 -9.1666,-33.0573 -24.0466,-41.6507 L 971.92664,5186.8548 c -14.88,-8.5947 -33.21333,-8.5947 -48.09333,0 l -204.78133,118.2293 z" /><path
       id="path20"
       style="fill:#333333;fill-opacity:1;fill-rule:nonzero;stroke:none;stroke-width:1.33333325"
       d="m 1877.9733,5157.8175 c -9.5667,0 -18.9947,0.412 -28.276,1.2186 -159.432,9.4854 -283.8853,141.516 -283.9373,301.2294 0,80.0626 31.8026,156.844 88.412,213.4533 56.6146,56.6093 133.396,88.4173 213.4533,88.4173 84.5,-0.1413 165.072,-35.6933 222.1346,-98.0106 v 82.588 h 127.068 v -565.672 h -117.5053 l -8.1507,76.88 c -19.536,-21.5574 -42.0786,-40.176 -66.9373,-55.2814 -6.584,-4.7186 -13.428,-9.192 -20.5573,-13.4 -35.5267,-20.948 -77.4267,-31.4226 -125.704,-31.4226 z m -10.348,119.9173 c 48.4107,0 94.8387,19.2293 129.072,53.4587 34.2293,34.2333 53.464,80.6613 53.464,129.072 0,48.412 -19.2347,94.8386 -53.464,129.0733 -34.2333,34.2293 -80.6613,53.464 -129.072,53.464 -48.412,0 -94.8387,-19.2347 -129.0733,-53.464 -34.2294,-34.2347 -53.4587,-80.6613 -53.4587,-129.0733 0,-48.4107 19.2293,-94.8387 53.4587,-129.072 34.2346,-34.2294 80.6613,-53.4587 129.0733,-53.4587 z" /><path
       id="path22"
       style="fill:#333333;fill-opacity:1;fill-rule:nonzero;stroke:none;stroke-width:1.33333325"
       d="m 2742.1399,5159.1828 c 52.8334,0 96.5574,15.9373 131.172,47.8227 34.6147,30.968 52.376,71.5053 53.2867,121.604 v 418.104 h -128.4373 v -374.38 c -1.8174,-31.88 -11.3854,-56.932 -28.692,-75.1507 -17.308,-18.2187 -43.2667,-27.7813 -77.8814,-28.6933 -50.0986,0 -91.5466,20.0413 -124.3373,60.12 -32.792,40.0786 -49.188,91.088 -49.188,153.0306 v 265.0734 h -127.0733 v -565.672 h 114.776 l 8.1986,109.308 c 20.036,-40.9894 50.0987,-72.8707 90.176,-95.6414 40.0787,-23.6866 86.0787,-35.5253 138,-35.5253 z" /><path
       id="path24"
       style="fill:#333333;fill-opacity:1;fill-rule:nonzero;stroke:none;stroke-width:1.33333325"
       d="m 3339.6612,5157.8175 c -49.5466,0 -95.2186,10.844 -137.0213,32.5213 -2.052,1.0627 -4.0986,2.1507 -6.124,3.26 -1.48,0.8133 -2.9533,1.636 -4.4226,2.4747 -2.2494,1.2653 -4.4734,2.5666 -6.6814,3.896 -92.5893,54.0253 -149.5786,153.0986 -149.7293,260.296 0.1093,65.3653 21.4267,128.928 60.7547,181.136 24.068,36.0826 54.5786,64.364 91.5573,84.8173 26.9427,14.036 55.7973,23.7347 86.5467,29.12 20.7093,4.468 41.8226,6.7493 63.0106,6.7973 80.3173,-0.084 157.2973,-32.172 213.8907,-89.1666 v 73.744 h 127.0733 v -565.672 h -117.5107 l -7.2706,68.5733 c -31.1667,-31.808 -68.9854,-56.3333 -110.74,-71.808 -30.3907,-13.3227 -64.8334,-19.9893 -103.3334,-19.9893 z m -2.1093,119.9173 c 48.412,0 94.8387,19.2293 129.068,53.4587 34.2347,34.2333 53.4627,80.6613 53.4627,129.072 0,48.412 -19.228,94.8386 -53.4627,129.0733 -34.2293,34.2293 -80.656,53.464 -129.068,53.464 -48.412,0 -94.844,-19.2347 -129.0733,-53.464 -34.2333,-34.2347 -53.4627,-80.6613 -53.4627,-129.0733 0,-48.4107 19.2294,-94.8387 53.4627,-129.072 34.2293,-34.2294 80.6613,-53.4587 129.0733,-53.4587 z" /><path
       id="path26"
       style="fill:#333333;fill-opacity:1;fill-rule:nonzero;stroke:none;stroke-width:1.33333325"
       d="m 3852.6772,4687.7921 h 127.068 v 1058.9214 h -127.068 z" /><path
       id="path28"
       style="fill:#333333;fill-opacity:1;fill-rule:nonzero;stroke:none;stroke-width:1.33333325"
       d="m 4280.9372,5181.0415 v 565.672 h -127.0733 v -565.672 z m -136.6346,-203.5827 c 0,-20.0427 7.7386,-36.896 23.224,-50.5573 15.4893,-13.6614 33.2493,-20.4947 53.2906,-20.4947 20.0374,0 37.344,6.8333 51.9227,20.4947 15.484,13.6613 23.224,30.5146 23.224,50.5573 0,20.036 -7.74,36.8907 -23.224,50.552 -14.5787,13.6667 -31.8853,20.4947 -51.9227,20.4947 -20.0413,0 -37.8013,-6.828 -53.2906,-20.4947 -15.4854,-13.6613 -23.224,-30.516 -23.224,-50.552 z" /><path
       id="path30"
       style="fill:#333333;fill-opacity:1;fill-rule:nonzero;stroke:none;stroke-width:1.33333325"
       d="m 4614.9172,5759.0108 c -41.9013,0 -81.98,-7.2867 -120.24,-21.86 -37.344,-14.5773 -67.86,-35.984 -91.5466,-64.2187 l 54.656,-73.7866 c 22.7706,21.8653 46.4586,38.7146 71.052,50.5573 25.5053,11.8387 50.552,17.7613 75.1453,17.7613 30.0627,0 54.656,-5.9226 73.7866,-17.7613 19.1254,-11.8427 28.6934,-30.0627 28.6934,-54.656 0,-19.1293 -5.9227,-34.6147 -17.7667,-46.4533 -11.8373,-11.844 -25.504,-20.4947 -40.9893,-25.9627 -14.572,-5.464 -39.6253,-13.6613 -75.1453,-24.5947 -96.5574,-30.968 -144.8334,-86.0773 -144.8334,-165.328 0,-47.364 17.3067,-87.9013 51.916,-121.604 35.5267,-33.7026 84.7187,-50.5573 147.568,-50.5573 40.0787,0 75.604,5.0107 106.5787,15.032 30.968,10.02 59.6613,25.9573 86.0773,47.8227 l -50.552,77.88 c -14.5773,-15.484 -33.2493,-27.7814 -56.02,-36.8907 -21.8653,-9.1093 -42.8133,-14.12 -62.8546,-15.0307 -25.5054,0 -47.3694,6.38 -65.5827,19.1294 -18.22,11.844 -27.3293,28.24 -27.3293,49.188 0,17.3066 5.9226,31.88 17.7613,43.724 11.844,10.932 24.14,19.1293 36.8907,24.5933 12.7546,4.5573 37.8066,12.7547 75.1506,24.5933 46.4587,15.4907 82.4373,35.5267 107.9427,60.12 26.4173,24.5947 39.6253,57.844 39.6253,99.7454 0,54.656 -19.1307,99.744 -57.3853,135.2706 -38.2614,35.5267 -92.4587,53.2867 -162.5987,53.2867 z" /><path
       id="path32"
       style="fill:#333333;fill-opacity:1;fill-rule:nonzero;stroke:none;stroke-width:1.33333325"
       d="m 5091.4692,5181.0415 v 565.672 h -127.068 v -565.672 z m -136.636,-203.5827 c 0,-20.0427 7.7453,-36.896 23.2293,-50.5573 15.484,-13.6614 33.244,-20.4947 53.2867,-20.4947 20.0413,0 37.348,6.8333 51.9213,20.4947 15.484,13.6613 23.2294,30.5146 23.2294,50.5573 0,20.036 -7.7454,36.8907 -23.2294,50.552 -14.5733,13.6667 -31.88,20.4947 -51.9213,20.4947 -20.0427,0 -37.8027,-6.828 -53.2867,-20.4947 -15.484,-13.6613 -23.2293,-30.516 -23.2293,-50.552 z" /><path
       id="path34"
       style="fill:#333333;fill-opacity:1;fill-rule:nonzero;stroke:none;stroke-width:1.33333325"
       d="m 5425.4532,5759.0108 c -41.9067,0 -81.984,-7.2867 -120.24,-21.86 -37.3493,-14.5773 -67.864,-35.984 -91.5467,-64.2187 l 54.6507,-73.7866 c 22.776,21.8653 46.4587,38.7146 71.052,50.5573 25.5053,11.8387 50.5573,17.7613 75.152,17.7613 30.0573,0 54.6507,-5.9226 73.7813,-17.7613 19.1294,-11.8427 28.692,-30.0627 28.692,-54.656 0,-19.1293 -5.9213,-34.6147 -17.76,-46.4533 -11.844,-11.844 -25.5053,-20.4947 -40.9893,-25.9627 -14.5787,-5.464 -39.6253,-13.6613 -75.152,-24.5947 -96.5573,-30.968 -144.8333,-86.0773 -144.8333,-165.328 0,-47.364 17.308,-87.9013 51.9226,-121.604 35.5254,-33.7026 84.7134,-50.5573 147.5667,-50.5573 40.0787,0 75.6053,5.0107 106.5733,15.032 30.9694,10.02 59.6667,25.9573 86.0787,47.8227 l -50.552,77.88 c -14.5733,-15.484 -33.2507,-27.7814 -56.0213,-36.8907 -21.8587,-9.1093 -42.812,-14.12 -62.8547,-15.0307 -25.504,0 -47.364,6.38 -65.5827,19.1294 -18.2186,11.844 -27.328,28.24 -27.328,49.188 0,17.3066 5.9214,31.88 17.7654,43.724 11.8386,10.932 24.136,19.1293 36.8906,24.5933 12.7507,4.5573 37.8027,12.7547 75.1454,24.5933 46.4586,15.4907 82.4386,35.5267 107.9426,60.12 26.4174,24.5947 39.6254,57.844 39.6254,99.7454 0,54.656 -19.1294,99.744 -57.3854,135.2706 -38.26,35.5267 -92.4586,53.2867 -162.5933,53.2867 z" /><path
       id="path36"
       style="fill:#333333;fill-opacity:1;fill-rule:nonzero;stroke:none;stroke-width:1.33333325"
       d="m 5958.0212,4932.3641 v 250.048 h 154.4 v 101.1094 h -154.4 v 463.192 h -128.4333 v -463.192 h -103.8427 v -101.1094 h 103.8427 v -250.048 z" /><path
       id="path38"
       style="fill:#333333;fill-opacity:1;fill-rule:nonzero;stroke:none;stroke-width:1.33333325"
       d="m 7604.5518,5157.8121 c 54.6507,0 97.9213,15.4907 129.8027,46.4587 32.7906,30.9693 50.0986,71.964 51.9213,122.9747 v 419.468 h -127.0733 v -373.016 c -2.7294,-66.4947 -32.7907,-101.5614 -90.176,-105.208 -32.792,0 -62.396,10.0213 -88.8134,30.0573 -25.5053,19.1307 -45.5466,44.636 -60.12,76.516 -14.572,31.8853 -22.3173,66.0413 -23.2293,102.4787 v 269.172 h -128.4373 v -373.016 c -2.7333,-66.4947 -33.7027,-101.5614 -92.9107,-105.208 -31.88,0 -61.032,10.0213 -87.448,30.0573 -25.5053,19.1307 -45.5413,45.0933 -60.12,77.8853 -14.5733,31.88 -21.86,66.0414 -21.86,102.4747 v 267.8067 h -127.072 v -565.672 h 114.776 l 9.5627,106.5786 c 21.864,-40.9893 51.468,-72.8746 88.812,-95.6466 38.26,-22.7707 81.5267,-34.1614 129.8067,-34.1614 45.5426,0 83.8026,10.9334 114.7719,32.7974 30.968,20.948 51.0094,50.0986 60.1187,87.4426 23.6827,-37.344 53.7453,-66.4946 90.1773,-87.4426 36.4374,-21.864 75.6094,-32.7974 117.5107,-32.7974 z" /><path
       style="fill:#03d5e1;fill-opacity:1;fill-rule:nonzero;stroke:none;stroke-width:1.33333325"
       d="m 1348.3496,4529.6816 c -85.1028,-0.15 -167.9293,43.9524 -213.5371,122.9434 -60.9789,105.6272 -34.6468,237.6843 56.582,312.6523 l 53.5098,-92.6796 c -41.8124,-44.2437 -51.6186,-112.3196 -19.6231,-167.7383 26.2239,-45.4224 73.8522,-70.7841 122.7891,-70.6992 23.8994,0.041 48.1104,6.1535 70.293,18.9609 67.6053,39.0307 90.7722,125.478 51.7402,193.082 -35.3325,61.1951 -109.5026,85.9727 -173.3926,61.1817 l -52.582,91.0742 c 114.2446,53.2282 252.2293,11.1904 316.4395,-100.0215 67.88,-117.568 27.5987,-267.9065 -89.9746,-335.7813 -38.5767,-22.2731 -80.6824,-32.9013 -122.2442,-32.9746 z"
       id="path42" /><path
       id="path46"
       style="fill:#333333;fill-opacity:1;fill-rule:nonzero;stroke:none;stroke-width:1.33333325"
       d="m 1385.604,4709.8695 c -36.2654,-20.9427 -82.64,-8.5147 -103.5774,27.7506 -20.9386,36.2654 -8.5106,82.64 27.7547,103.5774 36.2653,20.9386 82.6347,8.5106 103.5733,-27.7547 20.9374,-36.2653 8.5147,-82.636 -27.7506,-103.5733 z" /><path
       id="path50"
       style="fill:#333333;fill-opacity:1;fill-rule:nonzero;stroke:none;stroke-width:1.33333325"
       d="m 6469.6505,5157.8121 c -166.3907,0 -301.2813,134.8907 -301.2813,301.2814 0,166.396 134.8906,301.2813 301.2813,301.2813 99.6467,-0.1147 192.7867,-49.4947 248.808,-131.9053 l -96.428,-55.672 c -35.8587,48.1613 -92.3333,76.588 -152.38,76.692 -59.5307,-0.063 -115.6093,-27.968 -151.5573,-75.4214 l 375.0733,-216.5466 -0.1093,-0.1934 48.172,-27.812 c -49.9067,-104.756 -155.5414,-171.5426 -271.5787,-171.704 z m 0,110.8907 c 37.1413,0.095 73.448,11.0467 104.4427,31.5107 l -294.4427,169.9946 c -0.2387,-3.6973 -0.3693,-7.4053 -0.396,-11.1146 0,-105.1507 85.2453,-190.3907 190.396,-190.3907 z" /></g></svg>